# xmcd
#
# Track frame offsets: 
#        150
#        14917
#        27010
#        44835
#        60755
#        75150
#        91215
#        107877
#        120907
#        135105
#
# Disc length: 2100 seconds
#
# Revision: 8
# Processed by: cddbd v1.5.2PL0 Copyright (c) Steve Scherf et al.
# Submitted via: ExactAudioCopy v0.99pb5
#
DISCID=6c08320a
DTITLE=Patty Loveless - Only What I Feel
DYEAR=1993
DGENRE=Country
TTITLE0=You Will
TTITLE1=How About You
TTITLE2=Nothin' But The Wheel
TTITLE3=Love Builds The Bridges (Pride Builds The Walls)
TTITLE4=Mr. Man In The Moon
TTITLE5=Blame It On Your Heart
TTITLE6=You Don't Know How Lucky You Are
TTITLE7=All I Need (Is Not To Need You)
TTITLE8=What's A Broken Heart
TTITLE9=How Can I Help You Say Goodbye
EXTD=
EXTT0=
EXTT1=
EXTT2=
EXTT3=
EXTT4=
EXTT5=
EXTT6=
EXTT7=
EXTT8=
EXTT9=
PLAYORDER=
